<svg width="91" height="103" viewBox="0 0 91 103" fill="none" xmlns="http://www.w3.org/2000/svg">
<g clip-path="url(#clip0_635_2750)">
<path d="M8.8667 18.4512V7.0068C8.87224 5.15019 9.61152 3.3712 10.9231 2.05837C12.2346 0.745539 14.0119 0.00554493 15.8667 0H84C85.8548 0.00554493 87.6321 0.745539 88.9437 2.05837C90.2552 3.3712 90.9945 5.15019 91 7.0068V95.9932C90.9945 97.8498 90.2552 99.6288 88.9437 100.942C87.6321 102.254 85.8548 102.994 84 103H15.8667C14.0119 102.994 12.2346 102.254 10.9231 100.942C9.61152 99.6288 8.87224 97.8498 8.8667 95.9932V78.2426" fill="#6CB88E"/>
<path d="M15.8666 24.7574H3.49995C1.95355 24.7574 0.699951 26.0122 0.699951 27.5601V28.4943C0.699951 30.0422 1.95355 31.2971 3.49995 31.2971H15.8666C17.413 31.2971 18.6666 30.0422 18.6666 28.4943V27.5601C18.6666 26.0122 17.413 24.7574 15.8666 24.7574Z" fill="#838882"/>
<path d="M15.1667 71.3526H2.8C1.2536 71.3526 0 72.6074 0 74.1553V75.0896C0 76.6375 1.2536 77.8923 2.8 77.8923H15.1667C16.7131 77.8923 17.9667 76.6375 17.9667 75.0896V74.1553C17.9667 72.6074 16.7131 71.3526 15.1667 71.3526Z" fill="white"/>
<path d="M15.8666 44.61H3.49995C1.95355 44.61 0.699951 45.8648 0.699951 47.4127V48.3469C0.699951 49.8948 1.95355 51.1497 3.49995 51.1497H15.8666C17.413 51.1497 18.6666 49.8948 18.6666 48.3469V47.4127C18.6666 45.8648 17.413 44.61 15.8666 44.61Z" fill="white"/>
<path d="M15.8666 18.2177H3.49995C1.95355 18.2177 0.699951 19.4725 0.699951 21.0204V21.9546C0.699951 23.5025 1.95355 24.7574 3.49995 24.7574H15.8666C17.413 24.7574 18.6666 23.5025 18.6666 21.9546V21.0204C18.6666 19.4725 17.413 18.2177 15.8666 18.2177Z" fill="white"/>
<path d="M16.3334 77.6587H3.96675C2.42035 77.6587 1.16675 78.9135 1.16675 80.4614V81.3957C1.16675 82.9436 2.42035 84.1984 3.96675 84.1984H16.3334C17.8798 84.1984 19.1334 82.9436 19.1334 81.3957V80.4614C19.1334 78.9135 17.8798 77.6587 16.3334 77.6587Z" fill="#838882"/>
<path d="M16.3334 50.6825H3.96675C2.42035 50.6825 1.16675 51.9373 1.16675 53.4852V54.4195C1.16675 55.9674 2.42035 57.2222 3.96675 57.2222H16.3334C17.8798 57.2222 19.1334 55.9674 19.1334 54.4195V53.4852C19.1334 51.9373 17.8798 50.6825 16.3334 50.6825Z" fill="#838882"/>
</g>
<defs>
<clipPath id="clip0_635_2750">
<rect width="91" height="103" fill="white"/>
</clipPath>
</defs>
</svg>
