<svg width="221" height="82" viewBox="0 0 221 82" fill="none" xmlns="http://www.w3.org/2000/svg">
<path d="M121.181 50.9C119.781 50.9 119.081 50.2333 119.081 48.9V39.1C119.081 37.7667 119.781 37.1 121.181 37.1H147.781C149.048 37.1 149.681 37.7667 149.681 39.1V53C149.681 58.4667 148.915 63.0333 147.381 66.7C145.848 70.3667 143.681 73.3 140.881 75.5C138.148 77.7 134.881 79.2333 131.081 80.1C127.281 81.0333 123.148 81.5 118.681 81.5C114.081 81.5 109.881 81.0333 106.081 80.1C102.281 79.1667 98.9813 77.5667 96.1813 75.3C93.448 73.0333 91.3146 70.0333 89.7813 66.3C88.3146 62.5 87.5813 57.7667 87.5813 52.1V29.5C87.5813 23.8333 88.3146 19.1 89.7813 15.3C91.3146 11.5 93.448 8.46667 96.1813 6.2C98.9813 3.93333 102.281 2.33333 106.081 1.4C109.881 0.466667 114.081 0 118.681 0C123.281 0 127.481 0.5 131.281 1.5C135.081 2.43333 138.348 3.96667 141.081 6.1C143.815 8.16667 145.915 10.9 147.381 14.3C148.915 17.6333 149.681 21.6667 149.681 26.4V26.6C149.615 27.9333 148.948 28.6 147.681 28.6H131.381C129.981 28.6 129.281 27.9 129.281 26.5V25.7C129.281 24.5 129.081 23.3667 128.681 22.3C128.348 21.2333 127.748 20.3 126.881 19.5C126.081 18.7 125.015 18.0667 123.681 17.6C122.348 17.0667 120.681 16.8 118.681 16.8C114.748 16.8 111.948 17.7667 110.281 19.7C108.681 21.5667 107.881 24.5667 107.881 28.7V52.8C107.881 56.9333 108.681 59.9667 110.281 61.9C111.948 63.7667 114.748 64.7 118.681 64.7C122.615 64.7 125.348 63.7667 126.881 61.9C128.481 59.9667 129.281 56.9333 129.281 52.8V50.9H121.181Z" fill="#B6E599"/>
<path d="M176.898 22.7C178.298 22.7 178.998 23.3667 178.998 24.7V51.4C178.998 55.5333 179.798 58.5667 181.398 60.5C182.998 62.3667 185.765 63.3 189.698 63.3C193.632 63.3 196.398 62.3667 197.998 60.5C199.665 58.5667 200.498 55.5333 200.498 51.4V35.2C200.498 32.7333 200.265 30.5333 199.798 28.6C199.332 26.6667 198.432 25.0667 197.098 23.8C195.832 22.4667 194.032 21.4667 191.698 20.8C189.365 20.0667 186.365 19.7 182.698 19.7H158.698C157.298 19.7 156.598 19.0333 156.598 17.7V3.5C156.598 2.16666 157.298 1.5 158.698 1.5H182.198C188.932 1.5 194.732 2.13333 199.598 3.4C204.465 4.66666 208.465 6.63333 211.598 9.3C214.732 11.9 217.032 15.2667 218.498 19.4C220.032 23.5333 220.798 28.4667 220.798 34.2V52.1C220.798 57.7667 220.032 62.5 218.498 66.3C217.032 70.0333 214.898 73.0333 212.098 75.3C209.365 77.5667 206.098 79.1667 202.298 80.1C198.498 81.0333 194.298 81.5 189.698 81.5C185.098 81.5 180.898 81.0333 177.098 80.1C173.298 79.1667 170.032 77.5667 167.298 75.3C164.565 73.0333 162.432 70.0333 160.898 66.3C159.432 62.5 158.698 57.7667 158.698 52.1V24.7C158.698 23.3667 159.365 22.7 160.698 22.7H176.898Z" fill="#B6E599"/>
<path d="M3.4 80C2.06667 80 1.4 79.3333 1.4 78V54C1.4 52.6667 2.06667 52 3.4 52H17.8C19.1333 52 19.8 52.6667 19.8 54V70.3H59V66.3H24.9C23.5 66.3 22.8 65.6333 22.8 64.3V59.1C22.8 57.7667 23.5 57.1 24.9 57.1H59V54C59 52.6667 59.7 52 61.1 52H75.4C76.8 52 77.5 52.6667 77.5 54V78C77.5 79.3333 76.8 80 75.4 80H3.4ZM1.9 2C1.9 0.666666 2.6 0 4 0H74.9C76.3 0 77 0.666666 77 2V10.4C77 11.7333 76.3 12.4 74.9 12.4H51.6L25.3 31.1C24.9 31.4333 24.4 31.7333 23.8 32C23.2667 32.2 22.7 32.3 22.1 32.3H2C1.2 32.3 0.6 32.0333 0.2 31.5C-0.133333 30.9667 0.0333333 30.4333 0.7 29.9L25.4 12.4H4C2.6 12.4 1.9 11.7333 1.9 10.4V2ZM49.2 47.1V51C49.2 52.3333 48.5333 53 47.2 53H31.8C30.4667 53 29.8 52.3333 29.8 51V47.1H2.1C0.7 47.1 0 46.4 0 45V38.1C0 36.7667 0.7 36.1 2.1 36.1H76.8C78.2 36.1 78.9 36.7667 78.9 38.1V45C78.9 46.4 78.2 47.1 76.8 47.1H49.2ZM43.3 24.6C42.7667 24.2667 42.5333 23.8 42.6 23.2C42.6667 22.6 42.9333 22.1333 43.4 21.8L51.9 15.7C52.5 15.1667 53.0333 14.9333 53.5 15C53.9667 15 54.5 15.2 55.1 15.6L78.4 29.4C79.0667 29.8667 79.2 30.4 78.8 31C78.4667 31.5333 77.9 31.8 77.1 31.8H56.1C55.5 31.8 54.8667 31.6667 54.2 31.4C53.6 31.0667 53.1 30.7333 52.7 30.4L43.3 24.6Z" fill="#6CB88E"/>
</svg>
