<svg width="104" height="104" viewBox="0 0 104 104" fill="none" xmlns="http://www.w3.org/2000/svg">
<path d="M54.1748 22.815C54.0225 22.5836 53.7635 22.4443 53.4857 22.4443C53.2086 22.4443 52.9496 22.5836 52.7965 22.815L26.1539 63.2153C25.9871 63.4692 25.9726 63.7935 26.1162 64.0611C26.2599 64.3288 26.5391 64.495 26.8431 64.495H40.2268V103.174C40.2268 103.629 40.5961 103.999 41.0524 103.999H65.9195C66.3751 103.999 66.7451 103.63 66.7451 103.174V64.495H80.131C80.4349 64.495 80.7135 64.3281 80.8579 64.0611C81.0023 63.7935 80.987 63.4692 80.8202 63.2153L54.1748 22.815Z" fill="url(#paint0_linear_635_2731)"/>
<path d="M54.1748 6.65672C54.0225 6.4253 53.7635 6.28601 53.4857 6.28601C53.2086 6.28601 52.9496 6.4253 52.7965 6.65672L26.1539 47.057C25.9871 47.3109 25.9726 47.6352 26.1162 47.9029C26.2599 48.1706 26.5391 48.3367 26.8431 48.3367H33.9474C34.403 48.3367 34.773 47.9674 34.773 47.5111C34.773 47.0556 34.4037 46.6856 33.9474 46.6856H28.376L53.4864 8.61043L78.5969 46.6874H73.0254C72.5699 46.6874 72.1999 47.0567 72.1999 47.513C72.1999 47.9686 72.5691 48.3385 73.0254 48.3385H80.1298C80.4337 48.3385 80.7123 48.1717 80.8567 47.9047C81.001 47.637 80.9858 47.3128 80.8189 47.0589L54.1748 6.65672Z" fill="url(#paint1_linear_635_2731)"/>
<path d="M27.8107 11.372H31.2733V14.8803C31.2733 15.3359 31.6426 15.7059 32.0989 15.7059C32.5544 15.7059 32.9244 15.3366 32.9244 14.8803V11.372H36.3871C36.8426 11.372 37.2126 11.0028 37.2126 10.5465C37.2126 10.0909 36.8434 9.72091 36.3871 9.72091H32.9244V6.21258C32.9244 5.757 32.5552 5.38702 32.0989 5.38702C31.6433 5.38702 31.2733 5.75628 31.2733 6.21258V9.72091H27.8107C27.3551 9.72091 26.9851 10.0902 26.9851 10.5465C26.9858 11.002 27.3551 11.372 27.8107 11.372V11.372Z" fill="url(#paint2_linear_635_2731)"/>
<path d="M29.4431 34.9403V29.5546C29.4431 29.099 29.0738 28.729 28.6175 28.729H22.3387V22.3713C22.3387 21.9157 21.9695 21.5457 21.5132 21.5457L16.1833 21.5464C15.7278 21.5464 15.3578 21.9157 15.3578 22.372V28.7297L9.07897 28.729C8.6234 28.729 8.25342 29.0983 8.25342 29.5546V34.9403C8.25342 35.3959 8.62267 35.7658 9.07897 35.7658H15.3583V42.1236C15.3583 42.5792 15.7276 42.9491 16.1839 42.9491H21.5137C21.9693 42.9491 22.3393 42.5799 22.3393 42.1236V35.7658H28.6186C29.0735 35.7658 29.4427 35.3959 29.4427 34.9403H29.4431Z" fill="url(#paint3_linear_635_2731)"/>
<path d="M94.9203 36.0676H91.4576V32.5579C91.4576 32.1024 91.0884 31.7324 90.6321 31.7324C90.1765 31.7324 89.8065 32.1016 89.8065 32.5579V36.0676H86.3439C85.8883 36.0676 85.5183 36.4368 85.5183 36.8931C85.5183 37.3487 85.8876 37.7187 86.3439 37.7187H89.8065V41.227C89.8065 41.6826 90.1758 42.0526 90.6321 42.0526C91.0876 42.0526 91.4576 41.6833 91.4576 41.227V37.7187H94.9203C95.3758 37.7187 95.7458 37.3494 95.7458 36.8931C95.7458 36.4368 95.3766 36.0676 94.9203 36.0676Z" fill="url(#paint4_linear_635_2731)"/>
<path d="M86.2828 20.5771V14.2194H92.5622C93.0177 14.2194 93.3877 13.8501 93.3877 13.3938L93.387 8.00811C93.387 7.55254 93.0177 7.18256 92.5614 7.18256H86.2821L86.2828 0.825556C86.2828 0.36998 85.9135 0 85.4572 0H80.1295C79.6739 0 79.3039 0.369256 79.3039 0.825556V7.1833H73.0245C72.569 7.1833 72.199 7.55256 72.199 8.00886V13.3938C72.199 13.8494 72.5682 14.2194 73.0245 14.2194H79.3039V20.5771C79.3039 21.0327 79.6732 21.4027 80.1295 21.4027H85.4572C85.9128 21.4027 86.2828 21.0327 86.2828 20.5771V20.5771Z" fill="url(#paint5_linear_635_2731)"/>
<defs>
<linearGradient id="paint0_linear_635_2731" x1="53.4872" y1="22.4443" x2="53.4872" y2="103.999" gradientUnits="userSpaceOnUse">
<stop stop-color="#6CB88E"/>
<stop offset="1" stop-color="#E1FFAA"/>
</linearGradient>
<linearGradient id="paint1_linear_635_2731" x1="53.4866" y1="6.28601" x2="53.4866" y2="48.3385" gradientUnits="userSpaceOnUse">
<stop stop-color="#6CB88E"/>
<stop offset="1" stop-color="#E1FFAA"/>
</linearGradient>
<linearGradient id="paint2_linear_635_2731" x1="32.0989" y1="5.38702" x2="32.0989" y2="15.7059" gradientUnits="userSpaceOnUse">
<stop stop-color="#6CB88E"/>
<stop offset="1" stop-color="#E1FFAA"/>
</linearGradient>
<linearGradient id="paint3_linear_635_2731" x1="18.8483" y1="21.5457" x2="18.8483" y2="42.9491" gradientUnits="userSpaceOnUse">
<stop stop-color="#6CB88E"/>
<stop offset="1" stop-color="#E1FFAA"/>
</linearGradient>
<linearGradient id="paint4_linear_635_2731" x1="90.6321" y1="31.7324" x2="90.6321" y2="42.0526" gradientUnits="userSpaceOnUse">
<stop stop-color="#6CB88E"/>
<stop offset="1" stop-color="#E1FFAA"/>
</linearGradient>
<linearGradient id="paint5_linear_635_2731" x1="82.7933" y1="0" x2="82.7933" y2="21.4027" gradientUnits="userSpaceOnUse">
<stop stop-color="#6CB88E"/>
<stop offset="1" stop-color="#E1FFAA"/>
</linearGradient>
</defs>
</svg>
