<svg width="97" height="104" viewBox="0 0 97 104" fill="none" xmlns="http://www.w3.org/2000/svg">
<path d="M93.5665 89.6878C89.9677 75.9999 80.6828 64.645 68.1946 58.663C55.7067 52.6811 41.289 52.6811 28.8025 58.663C16.3146 64.645 7.02969 75.9999 3.43055 89.6878C2.67739 92.6987 3.32158 95.8999 5.17553 98.3541C7.02948 100.808 9.88351 102.24 12.9032 102.23H84.0949C87.1145 102.24 89.9686 100.808 91.8225 98.3541C93.6765 95.9 94.3207 92.6986 93.5675 89.6878H93.5665Z" fill="#6CB88E"/>
<path d="M48.5 48.48C54.6894 48.48 60.6238 45.9491 65.0009 41.4429C69.3766 36.9378 71.8347 30.8268 71.8347 24.454C71.8347 18.0831 69.3766 11.9717 65.0009 7.46658C60.6238 2.96003 54.6897 0.429535 48.5 0.429535C42.3103 0.429535 36.3762 2.96036 31.9991 7.46658C27.6235 11.9717 25.1653 18.0827 25.1653 24.454C25.1653 30.8265 27.6234 36.9378 31.9991 41.4429C36.3762 45.9495 42.3103 48.48 48.5 48.48Z" fill="#6CB88E"/>
</svg>
