<svg width="58" height="72" viewBox="0 0 58 72" fill="none" xmlns="http://www.w3.org/2000/svg">
<path d="M49.9222 10.7768C48.1791 8.62338 42.948 2.44892 33.9398 2.16233C33.5038 2.16233 24.7866 2.01901 18.6844 8.62338C15.4882 12.2127 14.3253 16.0894 14.0353 17.382C13.3092 20.2537 13.4542 22.1205 13.4542 23.8431C13.5993 25.4223 13.5993 26.7148 13.0182 28.8682C12.1462 31.8832 10.5482 34.1808 10.1122 34.7551C9.24024 35.9035 8.65921 36.4776 7.93316 37.0527C7.2071 37.6269 6.48013 38.3453 5.46314 39.6369C2.2669 43.9446 2.55715 48.9697 2.55715 50.8364C2.55715 53.5639 3.42916 62.7536 11.2744 67.6354C14.6164 69.6455 18.1035 70.2196 20.8636 70.2196C22.6067 70.2196 24.0598 70.0763 25.2227 69.9321C31.0349 69.2146 34.9571 67.0604 36.41 66.1985C48.0332 59.5941 55.7336 44.3744 55.2986 29.299C55.4436 24.7038 55.2976 17.2376 49.9225 10.7765L49.9222 10.7768ZM18.8285 40.7837C17.6664 39.6354 17.5205 37.912 18.6834 36.7636C19.8455 35.471 20.7175 34.1794 21.2985 32.6001C22.3155 30.0159 22.3155 27.575 22.1705 25.9958C22.0255 24.4166 23.1875 22.9808 24.7855 22.8372C26.3836 22.6939 27.8365 23.8423 27.9818 25.4214C28.4178 28.4364 27.9818 31.595 26.8197 34.61C25.9477 36.7633 24.6406 38.7734 23.0415 40.4969C22.4605 41.0711 21.7335 41.5019 20.8625 41.5019C20.1355 41.5019 19.4094 41.2144 18.8284 40.7836L18.8285 40.7837Z" fill="#250707"/>
</svg>
