<svg width="20" height="20" viewBox="0 0 20 20" fill="none" xmlns="http://www.w3.org/2000/svg">
<g clip-path="url(#clip0_635_1096)">
<path d="M14.0356 5.10421C13.3702 5.10918 12.7298 4.84331 12.255 4.36497C11.7804 3.8865 11.5102 3.23465 11.5037 2.55217C11.5191 1.63536 12.0051 0.794821 12.7823 0.340916C13.5593 -0.112988 14.5123 -0.112988 15.2893 0.340916C16.0664 0.794821 16.5525 1.63539 16.5679 2.55217C16.5614 3.23462 16.2911 3.88663 15.8164 4.36497C15.3417 4.84344 14.7012 5.10916 14.0356 5.10421H14.0356Z" fill="black"/>
<path d="M8.59093 19.2406C8.52182 19.2406 8.4527 19.2338 8.38477 19.2204C8.18017 19.1822 7.99116 19.0832 7.84114 18.9354C7.69126 18.7878 7.58707 18.598 7.54178 18.3899C7.49531 18.1851 7.50866 17.9707 7.58026 17.7737C7.65186 17.5765 7.77844 17.4054 7.94441 17.2818L11.5075 14.2851L9.6782 11.5313L7.7345 14.5447V14.5446C7.58541 14.7923 7.35149 14.9739 7.07859 15.054C6.80567 15.134 6.51351 15.1066 6.25931 14.9773L1.22514 12.6937C0.945547 12.5565 0.737545 12.3021 0.65481 11.9958C0.600618 11.7949 0.604807 11.582 0.666983 11.3834C0.72916 11.1849 0.846575 11.0092 1.00483 10.8782C1.16596 10.7405 1.36285 10.6541 1.57121 10.6297C1.7796 10.6051 1.99035 10.6436 2.17767 10.7404L6.43474 12.6454L9.03305 8.24376L10.0031 6.4468L8.51325 5.50693L6.81223 7.90609C6.69049 8.07881 6.52255 8.21142 6.32868 8.28818C6.13482 8.36495 5.92342 8.3824 5.72001 8.33838C5.36451 8.26899 5.06842 8.01801 4.93488 7.6731C4.80136 7.32832 4.84914 6.93736 5.06159 6.63686L7.27349 3.51674C7.4434 3.28039 7.69367 3.11812 7.97472 3.06177C8.25575 3.00554 8.54727 3.05935 8.79138 3.21262L12.1333 5.32107C12.5585 5.5648 12.9925 5.82074 13.4225 6.083L13.7613 6.29143C13.9759 6.42403 14.1907 6.55649 14.4072 6.68441L15.7823 7.49128L17.4115 5.04272V5.04285C17.528 4.8665 17.692 4.72866 17.8835 4.64612C18.0751 4.56358 18.2859 4.53982 18.4902 4.57794C18.8476 4.63632 19.1512 4.87817 19.2948 5.21892C19.4384 5.55969 19.402 5.95199 19.1985 6.25894L17.0797 9.44362C16.9166 9.68493 16.6711 9.85472 16.3916 9.91941C16.1123 9.9841 15.8193 9.93887 15.5709 9.79285L12.9492 8.24554L11.5754 10.6373L13.7628 13.921C13.9243 14.1634 13.9878 14.4606 13.9398 14.7501C13.8917 15.0394 13.736 15.2985 13.5053 15.4724L9.25128 19.0126C9.06082 19.1597 8.82912 19.2397 8.59063 19.2404L8.59093 19.2406Z" fill="black"/>
</g>
<defs>
<clipPath id="clip0_635_1096">
<rect width="20" height="20" fill="white"/>
</clipPath>
</defs>
</svg>
