<svg width="113" height="92" viewBox="0 0 113 92" fill="none" xmlns="http://www.w3.org/2000/svg">
<path d="M69.0587 59.9531C77.4428 59.9531 84.2044 53.1914 84.2044 44.8074C84.2044 39.8487 81.7701 35.4316 78.164 32.7267C75.6397 30.8332 72.4841 29.6616 69.1485 29.6616C64.6408 29.6616 60.6738 31.645 57.8792 34.7102C57.4283 35.1611 57.0679 35.7019 56.707 36.2427C56.9774 35.5214 57.2478 34.8906 57.5182 34.2593C60.0425 29.3006 65.0911 25.965 70.9515 25.965C74.1072 25.965 76.9918 26.9568 79.4262 28.5792C79.5161 28.0384 79.5161 27.5875 79.5161 27.0467C79.5161 21.0063 75.0984 16.0477 69.4189 15.056C69.2384 7.93412 63.4685 2.25403 56.3466 2.25403C50.5767 2.25403 45.7086 5.95055 43.9955 11.1795C49.3145 11.36 53.8223 14.966 55.2649 19.9246C53.101 16.8595 49.495 14.8761 45.4382 14.8761C44.7168 14.8761 43.9955 14.966 43.3648 15.0565C37.5948 16.0483 33.1771 21.0069 33.1771 27.0472C33.1771 29.1206 33.7179 31.0141 34.5292 32.7271C30.8326 35.5217 28.4888 39.849 28.4888 44.8077C28.4888 53.1918 35.2504 59.9534 43.6345 59.9534H50.7564V76.7222H46.8801C43.815 76.7222 41.2906 79.2466 41.2906 82.3117C41.2906 85.3768 43.815 87.9012 46.8801 87.9012H65.7225C68.7876 87.9012 71.3119 85.3768 71.3119 82.3117C71.3119 79.2466 68.7876 76.7222 65.7225 76.7222H61.8461V59.9534L69.0587 59.9531Z" fill="#6CB88E"/>
<mask id="mask0_635_2688" style="mask-type:alpha" maskUnits="userSpaceOnUse" x="28" y="2" width="57" height="86">
<path d="M69.0587 59.953C77.4428 59.953 84.2044 53.1913 84.2044 44.8072C84.2044 39.8485 81.7701 35.4314 78.164 32.7266C75.6397 30.833 72.4841 29.6615 69.1485 29.6615C64.6408 29.6615 60.6738 31.6449 57.8792 34.71C57.4283 35.1609 57.0679 35.7018 56.707 36.2426C56.9774 35.5213 57.2478 34.8905 57.5182 34.2592C60.0425 29.3005 65.0911 25.9649 70.9515 25.9649C74.1072 25.9649 76.9918 26.9567 79.4262 28.5791C79.5161 28.0383 79.5161 27.5874 79.5161 27.0465C79.5161 21.0061 75.0984 16.0476 69.4189 15.0559C69.2384 7.934 63.4685 2.25391 56.3466 2.25391C50.5767 2.25391 45.7086 5.95042 43.9955 11.1794C49.3145 11.3599 53.8223 14.9659 55.2649 19.9245C53.101 16.8593 49.495 14.8759 45.4382 14.8759C44.7168 14.8759 43.9955 14.9659 43.3648 15.0564C37.5948 16.0482 33.1771 21.0068 33.1771 27.047C33.1771 29.1204 33.7179 31.014 34.5292 32.727C30.8326 35.5216 28.4888 39.8489 28.4888 44.8076C28.4888 53.1917 35.2504 59.9533 43.6345 59.9533H50.7564V76.7221H46.8801C43.815 76.7221 41.2906 79.2465 41.2906 82.3116C41.2906 85.3767 43.815 87.901 46.8801 87.901H65.7225C68.7876 87.901 71.3119 85.3767 71.3119 82.3116C71.3119 79.2465 68.7876 76.7221 65.7225 76.7221H61.8461V59.9533L69.0587 59.953Z" fill="#6CB88E"/>
</mask>
<g mask="url(#mask0_635_2688)">
<rect x="39" y="60" width="33" height="28" fill="#524141"/>
</g>
</svg>
