<svg width="33" height="64" viewBox="0 0 33 64" fill="none" xmlns="http://www.w3.org/2000/svg">
<g clip-path="url(#clip0_635_2697)">
<path d="M22.5854 38C31.0065 30.4 21.5986 25 13.2433 20.6667C1.73014 14.6 1.92751 5.26667 11.5986 3.60001C18.7696 2.33334 15.0196 8.46667 17.2565 13.2667C18.3091 15.5333 27.4538 14.2667 27.0591 12.9333C26.7301 11.8 22.717 12.0667 21.4012 10.4C20.5459 9.33334 21.2038 6.93334 20.7433 5.26667C18.5722 -2.73333 4.82225 -0.933329 1.33541 6.26667C-2.87512 14.8667 3.70383 19.8667 10.4801 23.8C17.5854 27.8667 21.0065 30.9333 22.5854 38Z" fill="#6CB88E"/>
<path d="M14.2308 31.0667C11.2045 32.8 8.24397 35.8 5.87555 41.5333C0.28344 55.2667 8.6387 63.7333 17.1913 64H17.1255L17.1913 63.7333C17.6519 61.5333 19.0334 53.8667 19.0992 46C19.0992 38.7333 17.9808 34.3333 15.8098 32.3333C15.3492 31.8667 14.8229 31.4667 14.2308 31.0667Z" fill="#524141"/>
<path d="M28.8359 33.1333C29.4938 34 27.1254 40.1333 23.2438 42.2666C23.1122 51.3333 20.7438 60.9333 19.8228 63.9333C25.6122 63.4666 31.6649 59.1333 32.7833 49.4666C33.6385 42 31.928 36.6 28.8359 33.1333Z" fill="#524141"/>
</g>
<defs>
<clipPath id="clip0_635_2697">
<rect width="33" height="64" fill="white"/>
</clipPath>
</defs>
</svg>
