<svg width="113" height="92" viewBox="0 0 113 92" fill="none" xmlns="http://www.w3.org/2000/svg">
<path d="M84.4335 24.354C83.7102 23.6323 82.6257 23.2718 81.6313 23.5423C76.3881 24.7151 69.5178 26.609 66.5345 29.5857C63.0089 33.1035 62.4666 37.1624 64.9977 40.7707L58.6699 47.0845V30.2171C63.5512 29.4055 66.3542 25.8877 66.3542 20.2948C66.3542 15.6948 62.5574 8.74919 59.303 3.78819C58.6699 2.88594 57.6762 2.34485 56.5909 2.34485C55.5063 2.34485 54.5118 2.88595 53.8787 3.78819C50.6243 8.74935 46.8275 15.6949 46.8275 20.2948C46.8275 25.887 49.6298 29.4048 54.5118 30.2171V47.1747L48.184 40.8609C50.7152 37.2532 50.1728 33.1936 46.6473 29.6759C43.6641 26.6993 36.7938 24.7148 31.5505 23.6325C30.556 23.4519 29.4714 23.7225 28.7482 24.4442C28.025 25.1658 27.6636 26.248 27.9348 27.2402C29.1102 32.4718 31.0082 39.3268 33.9916 42.3036C36.0706 44.378 38.3306 45.4609 40.5906 45.4609C42.1273 45.4609 43.7549 44.9198 45.2009 43.9276L54.5121 53.2182V59.8026H37.0649C36.1606 59.8026 35.438 60.5243 35.438 61.4259V67.4693C35.438 68.3716 36.1613 69.0926 37.0649 69.0926H40.3193L42.7596 85.6894C42.9406 86.9522 44.0251 87.9444 45.3809 87.9444H67.6193C68.975 87.9444 70.0602 86.9522 70.2405 85.6894L72.6815 69.0024H75.9359C76.8402 69.0024 77.5628 68.2807 77.5628 67.3791L77.5634 61.3357C77.5634 60.4335 76.8401 59.7124 75.9365 59.7124L58.5797 59.7118V53.1274L67.8909 43.8368C69.3375 44.829 70.9644 45.3701 72.5012 45.3701C74.7612 45.3701 77.0212 44.2879 79.1002 42.2128C82.0834 39.2362 84.0724 32.3811 85.157 27.1494C85.5196 26.1571 85.1576 25.0749 84.4344 24.3533L84.4335 24.354Z" fill="#6CB88E"/>
<path d="M37.0649 59.8025L58.5797 59.7117L75.9365 59.7123C76.8401 59.7123 77.5634 60.4333 77.5634 61.3356L77.5628 67.379C77.5628 68.2806 76.8402 69.0023 75.9359 69.0023H72.6815L70.2405 85.6893C70.0602 86.952 68.975 87.9443 67.6193 87.9443H45.3809C44.0252 87.9443 42.9406 86.952 42.7596 85.6893L40.3193 69.0925H37.0649C36.1613 69.0925 35.438 68.3714 35.438 67.4692V61.4258C35.438 60.5242 36.1606 59.8025 37.0649 59.8025Z" fill="#804442"/>
</svg>
