<svg width="114" height="92" viewBox="0 0 114 92" fill="none" xmlns="http://www.w3.org/2000/svg">
<path d="M60.0984 79.2305V53.6343C61.6393 54.358 63.4522 54.7195 65.2656 54.7195C70.795 54.7195 75.5088 51.1921 77.2312 46.2174C82.5792 44.7702 86.5678 39.8864 86.5678 34.0069C86.5678 29.756 84.4831 26.0475 81.3103 23.6961C81.4007 23.1535 81.4007 22.7012 81.4007 22.1586C81.4007 15.1941 75.6898 9.49653 68.7106 9.49653H68.0757C66.1718 5.24622 61.73 2.26135 56.654 2.26135C51.5779 2.26135 47.1359 5.24606 45.1417 9.5873H44.5069C37.527 9.5873 31.8167 15.2855 31.8167 22.2494C31.8167 22.792 31.8167 23.2443 31.9071 23.7869C28.7342 26.048 26.6497 29.8468 26.6497 34.0977C26.6497 39.9764 30.6383 44.8609 35.9862 46.3082C37.7087 51.2829 42.4224 54.8103 47.9519 54.8103C49.7646 54.8103 51.5774 54.3579 53.119 53.7251V79.2308C39.7035 79.5923 29.279 82.3058 29.279 85.5619C29.279 89.0893 83.9388 89.0893 83.9388 85.5619C83.9388 82.3058 73.6047 79.5926 60.0984 79.2305ZM71.4292 30.842C72.8797 30.842 74.0576 32.018 74.0576 33.4646C74.0576 34.9119 72.879 36.0872 71.4292 36.0872C69.9787 36.0872 68.8008 34.9112 68.8008 33.4646C68.8002 32.0173 69.9787 30.842 71.4292 30.842ZM41.9691 37.5347C40.5187 37.5347 39.3407 36.3587 39.3407 34.9121C39.3407 33.4648 40.5193 32.2895 41.9691 32.2895C43.4196 32.2895 44.5976 33.4655 44.5976 34.9121C44.5976 36.3593 43.419 37.5347 41.9691 37.5347ZM48.0425 24.0586C46.592 24.0586 45.414 22.8826 45.414 21.436C45.414 19.9887 46.5926 18.8134 48.0425 18.8134C49.4929 18.8134 50.6709 19.9894 50.6709 21.436C50.6709 22.8826 49.4929 24.0586 48.0425 24.0586ZM64.7214 17.4556C66.1719 17.4556 67.3498 18.6315 67.3498 20.0782C67.3498 21.5254 66.1712 22.7008 64.7214 22.7008C63.2709 22.7008 62.093 21.5248 62.093 20.0782C62.093 18.6315 63.2709 17.4556 64.7214 17.4556ZM57.7414 44.3179C56.291 44.3179 55.113 43.142 55.113 41.6953C55.113 40.2481 56.2916 39.0727 57.7414 39.0727C59.1919 39.0727 60.3699 40.2487 60.3699 41.6953C60.3705 43.1426 59.1919 44.3179 57.7414 44.3179Z" fill="#493D3D"/>
<path d="M65.2653 54.7195C63.4519 54.7195 61.6391 54.358 60.0982 53.6343C59.3988 53.9229 57.7 54.5 56.5 54.5C55.3 54.5 53.7459 53.9834 53.1188 53.7251C51.5772 54.3579 49.7644 54.8103 47.9516 54.8103C42.4222 54.8103 37.7084 51.2829 35.986 46.3082C30.638 44.8609 26.6494 39.9764 26.6494 34.0977C26.6494 29.8468 28.734 26.048 31.9069 23.7869C31.8165 23.2443 31.8165 22.792 31.8165 22.2494C31.8165 15.2855 37.5267 9.5873 44.5066 9.5873H45.1415C47.1357 5.24606 51.5777 2.26135 56.6537 2.26135C61.7298 2.26135 66.1716 5.24622 68.0755 9.49653H68.7103C75.6896 9.49653 81.4005 15.1941 81.4005 22.1586C81.4005 22.7012 81.4005 23.1535 81.3101 23.6961C84.4828 26.0475 86.5676 29.756 86.5676 34.0069C86.5676 39.8864 82.5789 44.7702 77.231 46.2174C75.5085 51.1921 70.7948 54.7195 65.2653 54.7195Z" fill="#30522A"/>
<path d="M71.429 30.842C72.8794 30.842 74.0574 32.018 74.0574 33.4646C74.0574 34.9119 72.8788 36.0872 71.429 36.0872C69.9785 36.0872 68.8005 34.9112 68.8005 33.4646C68.7999 32.0173 69.9785 30.842 71.429 30.842ZM41.9689 37.5347C40.5184 37.5347 39.3405 36.3587 39.3405 34.9121C39.3405 33.4648 40.5191 32.2895 41.9689 32.2895C43.4194 32.2895 44.5973 33.4655 44.5973 34.9121C44.5973 36.3593 43.4187 37.5347 41.9689 37.5347ZM48.0422 24.0586C46.5917 24.0586 45.4138 22.8826 45.4138 21.436C45.4138 19.9887 46.5924 18.8134 48.0422 18.8134C49.4927 18.8134 50.6706 19.9894 50.6706 21.436C50.6706 22.8826 49.4927 24.0586 48.0422 24.0586ZM64.7211 17.4556C66.1716 17.4556 67.3496 18.6315 67.3496 20.0782C67.3496 21.5254 66.171 22.7008 64.7211 22.7008C63.2706 22.7008 62.0927 21.5248 62.0927 20.0782C62.0927 18.6315 63.2707 17.4556 64.7211 17.4556ZM57.7412 44.3179C56.2907 44.3179 55.1128 43.142 55.1128 41.6953C55.1128 40.2481 56.2914 39.0727 57.7412 39.0727C59.1917 39.0727 60.3696 40.2487 60.3696 41.6953C60.3703 43.1426 59.1917 44.3179 57.7412 44.3179Z" fill="#EF8D8A"/>
</svg>
