<svg width="113" height="92" viewBox="0 0 113 92" fill="none" xmlns="http://www.w3.org/2000/svg">
<path d="M82.1312 43.7252C78.8856 44.0856 73.6564 44.9873 71.4026 46.7903C68.6079 49.0442 68.3375 51.5685 69.4192 53.7324L60.1332 59.5023L59.1415 39.7584L69.509 32.456C71.4924 34.1691 74.0167 34.5294 76.9918 32.1856C79.2457 30.3826 81.2291 25.5139 82.3108 22.3588C82.7617 21.0068 81.6794 19.654 80.3274 19.8345C77.0818 20.1948 71.8527 21.0966 69.5988 22.8996C66.894 25.0635 66.5337 27.4074 67.4349 29.5712L58.8703 34.8002L58.149 20.2853C60.5834 19.6539 62.3863 17.7609 62.3863 14.0644C62.3863 10.9993 59.6815 6.04062 57.7886 3.0655C56.9773 1.80336 55.1744 1.80336 54.3625 3.0655C52.4689 6.04062 49.7648 10.9088 49.7648 14.0644C49.7648 17.7609 51.5677 19.6539 54.0021 20.2853L53.0103 40.5701L45.6179 36.0618C46.3392 33.9883 45.8883 31.7345 43.2741 29.7511C41.0202 27.9481 35.7912 27.0463 32.5455 26.686C31.1934 26.5055 30.1111 27.8582 30.562 29.2103C31.6437 32.366 33.6271 37.2341 35.881 39.037C38.9461 41.4714 41.5609 41.0204 43.5445 39.127L52.8305 45.6181L51.8388 66.0833L43.2742 60.7643C44.3559 58.5105 44.0854 55.9861 41.2908 53.7322C39.0369 51.9293 33.8079 51.0274 30.5622 50.6671C29.2101 50.4866 28.1278 51.8393 28.5788 53.1915C29.6604 56.3472 31.6439 61.2153 33.8977 63.0182C36.6924 65.2721 39.1267 65.0016 41.0197 63.559L51.5678 71.0419L50.937 85.8273C50.8471 86.9995 51.7483 87.9007 52.9204 87.9007H59.4116C60.5838 87.9007 61.485 86.909 61.395 85.8273L60.4033 64.4606L71.6727 56.5268C73.5662 58.0593 76.0904 58.3297 78.8852 56.0759C81.1391 54.2729 83.1225 49.4042 84.2042 46.2491C84.6551 44.987 83.5734 43.6343 82.1308 43.7248L82.1312 43.7252Z" fill="#524141"/>
<path d="M71.4023 46.7903C73.6562 44.9873 78.8854 44.0856 82.1309 43.7252C83.5736 43.6347 84.6549 44.987 84.204 46.2491C83.1223 49.4042 81.1389 54.2729 78.885 56.0759C76.0902 58.3297 73.566 58.0593 71.6724 56.5268C71 56 70.9 55.9607 70.5 55.5C70.1 55.0393 69.8026 54.5 69.4189 53.7324C68.3372 51.5685 68.6077 49.0442 71.4023 46.7903Z" fill="#6CB88E"/>
<path d="M76.9916 32.1856C74.0165 34.5294 71.4921 34.1691 69.5087 32.456C69.1725 32.1373 68.9 31.9 68.5 31.5C68.1 31.1 67.4564 29.8808 67.4347 29.5712C66.5334 27.4074 66.8937 25.0635 69.5985 22.8996C71.8524 21.0966 77.0816 20.1948 80.3272 19.8345C81.6792 19.654 82.7615 21.0068 82.3106 22.3588C81.2289 25.5139 79.2455 30.3826 76.9916 32.1856Z" fill="#6CB88E"/>
<path d="M62.3861 14.0644C62.3861 17.7609 60.5831 19.6539 58.1488 20.2853C57.7659 20.3568 56.8 20.5 56 20.5C55.2 20.5 54.3345 20.3568 54.0018 20.2853C51.5675 19.6539 49.7645 17.7609 49.7645 14.0644C49.7645 10.9088 52.4687 6.04062 54.3623 3.0655C55.1741 1.80336 56.9771 1.80336 57.7883 3.0655C59.6813 6.04062 62.3861 10.9993 62.3861 14.0644Z" fill="#6CB88E"/>
<path d="M43.2738 29.7511C45.8881 31.7345 46.339 33.9883 45.6177 36.0618C45.4652 36.5 45.4941 36.7 45 37.5C44.5059 38.3 43.8589 38.8266 43.5443 39.127C41.5607 41.0204 38.9459 41.4714 35.8808 39.037C33.6269 37.2341 31.6435 32.366 30.5618 29.2103C30.1109 27.8582 31.1931 26.5055 32.5452 26.686C35.7909 27.0463 41.0199 27.9481 43.2738 29.7511Z" fill="#6CB88E"/>
<path d="M41.2905 53.7322C44.0852 55.9861 44.3556 58.5105 43.2739 60.7643C43.0563 61.2178 42.6191 61.7 42 62.5C41.3809 63.3 41.5 63.1928 41.0194 63.559C39.1265 65.0016 36.6921 65.2721 33.8975 63.0182C31.6436 61.2153 29.6602 56.3472 28.5785 53.1915C28.1276 51.8393 29.2099 50.4866 30.5619 50.6671C33.8077 51.0274 39.0367 51.9293 41.2905 53.7322Z" fill="#6CB88E"/>
</svg>
