<svg width="113" height="92" viewBox="0 0 113 92" fill="none" xmlns="http://www.w3.org/2000/svg">
<path d="M85.7276 53.3717C86.1775 52.6504 86.3576 51.7493 86.3576 50.8474C86.3576 47.8723 84.0189 45.5284 81.0504 45.5284C79.791 45.5284 78.6214 45.9793 77.6319 46.7906C76.7321 45.9793 75.5631 45.5284 74.2134 45.5284C71.2449 45.5284 68.9062 47.8723 68.9062 50.8474C68.9062 51.6587 69.0863 52.38 69.4458 53.1013C68.0968 54.093 67.197 55.6256 67.197 57.4286C67.197 57.7889 67.197 58.1499 67.2867 58.4203L59.8204 63.0185L58.8308 41.6518L66.7471 36.0623C67.6469 36.8736 68.9062 37.4144 70.2553 37.4144H70.7053C71.6051 39.0369 73.3136 40.209 75.2928 40.209C77.1822 40.209 78.8011 39.2173 79.7008 37.7747C79.9706 37.8646 80.2404 37.8646 80.6006 37.8646C83.5692 37.8646 85.9078 35.5208 85.9078 32.5456C85.9078 30.6521 84.9183 29.0296 83.4789 28.1279C83.9288 27.4066 84.1089 26.5054 84.1089 25.6035C84.1089 22.6284 81.7702 20.2846 78.8017 20.2846C77.5423 20.2846 76.3727 20.7355 75.3832 21.5467C74.4834 20.7355 73.3144 20.2846 71.9647 20.2846C68.9962 20.2846 66.6575 22.6284 66.6575 25.6035C66.6575 26.4148 66.8376 27.1361 67.1971 27.8574C65.8481 28.8492 64.9482 30.3818 64.9482 32.1847C64.9482 32.4551 64.9482 32.6356 65.038 32.906L58.6508 36.7824L57.8414 21.6366C58.7412 21.1857 59.4602 20.555 60.0004 19.7431C60.2703 19.833 60.5401 19.833 60.9003 19.833C63.8688 19.833 66.2075 17.4891 66.2075 14.514C66.2075 12.6204 65.2179 10.998 63.7785 10.0963C64.2284 9.37493 64.4085 8.47379 64.4085 7.57191C64.4085 4.5968 62.0698 2.25293 59.1013 2.25293C57.8419 2.25293 56.6723 2.70383 55.6828 3.51507C54.783 2.70382 53.614 2.25293 52.2643 2.25293C49.2958 2.25293 46.9571 4.5968 46.9571 7.57191C46.9571 8.38317 47.1372 9.10447 47.4968 9.82579C46.1477 10.8175 45.2479 12.3501 45.2479 14.1531C45.2479 17.1282 47.5866 19.4721 50.5551 19.4721H51.005C51.5446 20.5537 52.4444 21.3656 53.6134 21.8159L52.7136 40.2075L45.9676 36.062C46.1476 35.5212 46.3271 34.8898 46.3271 34.1685C46.3271 32.2749 45.3376 30.6524 43.8981 29.7507C44.348 29.0294 44.5281 28.1282 44.5281 27.2264C44.5281 24.2512 42.1895 21.9074 39.2209 21.9074C37.9616 21.9074 36.792 22.3583 35.8024 23.1695C34.9026 22.3583 33.7336 21.9074 32.384 21.9074C29.4154 21.9074 27.0768 24.2512 27.0768 27.2264C27.0768 28.0376 27.2568 28.7589 27.6164 29.4802C26.2673 30.472 25.3675 32.0046 25.3675 33.8075C25.3675 36.7826 27.7062 39.1265 30.6747 39.1265H31.1246C32.0244 40.749 33.733 41.9211 35.7122 41.9211C37.6016 41.9211 39.2205 40.9294 40.1202 39.4868C40.39 39.5767 40.6598 39.5767 41.02 39.5767C41.9198 39.5767 42.819 39.3063 43.5388 38.9453L52.4445 45.256L51.455 66.172L44.8884 62.1152C45.0685 61.5743 45.2479 60.943 45.2479 60.2216C45.2479 58.328 44.2584 56.7055 42.819 55.8038C43.2689 55.0825 43.449 54.1814 43.449 53.2795C43.449 50.3044 41.1103 47.9605 38.1417 47.9605C36.8824 47.9605 35.7128 48.4114 34.7233 49.2226C33.8235 48.4114 32.6545 47.9605 31.3048 47.9605C28.3363 47.9605 25.9976 50.3044 25.9976 53.2795C25.9976 54.0907 26.1777 54.812 26.5372 55.5334C25.1881 56.5251 24.2883 58.0577 24.2883 59.8606C24.2883 62.8358 26.627 65.1796 29.5955 65.1796H30.0455C30.9453 66.8021 32.6538 67.9743 34.633 67.9743C36.5224 67.9743 38.1413 66.9825 39.041 65.5399C39.3108 65.6299 39.5806 65.6299 39.9408 65.6299C40.8406 65.6299 41.7398 65.3594 42.4596 64.9985L51.1853 71.1287L50.4655 86.0039C50.3758 87.1762 51.275 88.0774 52.4446 88.0774L58.9214 88.0811C60.091 88.0811 60.9902 87.0894 60.9004 86.0077L60.0006 68.157L69.0859 61.7557C69.9857 62.477 71.1547 62.9279 72.4141 62.9279H72.864C73.7638 64.5504 75.4724 65.7225 77.4516 65.7225C79.341 65.7225 80.9599 64.7308 81.8596 63.2882C82.1294 63.3781 82.3992 63.3781 82.7594 63.3781C85.7279 63.3781 88.0666 61.0343 88.0666 58.0591C88.157 55.8953 87.1674 54.2726 85.7279 53.3709L85.7276 53.3717Z" fill="#524141"/>
<path d="M86.3573 50.8474C86.3573 51.7493 86.1772 52.6504 85.7273 53.3717C87.1668 54.2735 88.1567 55.8953 88.0664 58.0591C88.0664 61.0343 85.7277 63.3781 82.7591 63.3781C82.399 63.3781 82.1292 63.3781 81.8593 63.2882C80.9596 64.7308 79.3407 65.7225 77.4514 65.7225C75.4722 65.7225 73.7636 64.5504 72.8638 62.9279H72.4139C71.1545 62.9279 69.9855 62.477 69.0857 61.7557C68.8905 61.5038 68.3542 60.8443 67.771 60.2216C67.1878 59.5989 67.205 58.7613 67.2864 58.4203C67.1967 58.1499 67.1967 57.7889 67.1967 57.4286C67.1967 55.6256 68.0965 54.093 69.4456 53.1013C69.086 52.38 68.906 51.6586 68.906 50.8474C68.906 47.8723 71.2446 45.5284 74.2132 45.5284C75.5628 45.5284 76.7318 45.9793 77.6317 46.7906C78.6212 45.9793 79.7908 45.5284 81.0501 45.5284C84.0187 45.5284 86.3573 47.8723 86.3573 50.8474Z" fill="#6CB88E"/>
<path d="M70.2551 37.4144C68.9059 37.4144 67.6466 36.8736 66.7468 36.0623C66.4979 35.8749 65.9 35.3 65.5 34.5C65.1 33.7 65.0252 33.104 65.0377 32.906C64.948 32.6356 64.948 32.4551 64.948 32.1847C64.948 30.3818 65.8478 28.8492 67.1969 27.8574C66.8373 27.1361 66.6573 26.4148 66.6573 25.6035C66.6573 22.6284 68.9959 20.2846 71.9645 20.2846C73.3141 20.2846 74.4831 20.7355 75.3829 21.5467C76.3725 20.7355 77.5421 20.2846 78.8014 20.2846C81.7699 20.2846 84.1086 22.6284 84.1086 25.6035C84.1086 26.5054 83.9285 27.4066 83.4786 28.1279C84.9181 29.0296 85.9076 30.6521 85.9076 32.5456C85.9076 35.5208 83.5689 37.8646 80.6004 37.8646C80.2402 37.8646 79.9704 37.8646 79.7006 37.7747C78.8008 39.2173 77.182 40.209 75.2926 40.209C73.3134 40.209 71.6048 39.0369 70.705 37.4144H70.2551Z" fill="#6CB88E"/>
<path d="M60.0002 19.7431C59.46 20.555 58.7409 21.1857 57.8411 21.6366C57.3941 21.7269 56.3365 21.9074 55.6826 21.9074C55.0286 21.9074 54.0305 21.8464 53.6131 21.8159C52.4442 21.3656 51.5444 20.5537 51.0048 19.4721H50.5549C47.5863 19.4721 45.2476 17.1282 45.2476 14.1531C45.2476 12.3501 46.1474 10.8175 47.4965 9.82579C47.137 9.10447 46.9569 8.38317 46.9569 7.57192C46.9569 4.5968 49.2956 2.25293 52.2641 2.25293C53.6138 2.25293 54.7828 2.70382 55.6826 3.51507C56.6721 2.70383 57.8417 2.25293 59.101 2.25293C62.0696 2.25293 64.4083 4.5968 64.4083 7.57192C64.4083 8.47379 64.2282 9.37493 63.7783 10.0963C65.2177 10.998 66.2072 12.6204 66.2072 14.514C66.2072 17.4891 63.8685 19.833 60.9 19.833C60.5398 19.833 60.27 19.833 60.0002 19.7431Z" fill="#6CB88E"/>
<path d="M46.3269 34.1684C46.3269 34.8898 46.1474 35.5212 45.9673 36.062C45.8115 36.3021 45.4 36.9259 45 37.5C44.6 38.0741 43.859 38.7028 43.5385 38.9453C42.8187 39.3063 41.9196 39.5767 41.0198 39.5767H41.0197C40.6596 39.5767 40.3897 39.5767 40.1199 39.4868C39.2202 40.9294 37.6013 41.9211 35.712 41.9211C33.7328 41.9211 32.0242 40.749 31.1244 39.1265H30.6745C27.7059 39.1265 25.3673 36.7826 25.3673 33.8075C25.3673 32.0046 26.2671 30.472 27.6162 29.4802C27.2566 28.7589 27.0765 28.0376 27.0765 27.2264C27.0765 24.2512 29.4152 21.9074 32.3837 21.9074C33.7334 21.9074 34.9024 22.3583 35.8022 23.1695C36.7917 22.3583 37.9613 21.9074 39.2207 21.9074C42.1892 21.9074 44.5279 24.2512 44.5279 27.2264C44.5279 28.1282 44.3478 29.0294 43.8979 29.7507C45.3373 30.6524 46.3269 32.2749 46.3269 34.1684Z" fill="#6CB88E"/>
<path d="M45.2477 60.2216C45.2477 60.943 45.0682 61.5743 44.8881 62.1152C44.7588 62.4101 44.4 63.1 44 63.5C43.6 63.9 42.8062 64.6656 42.4593 64.9985C41.7395 65.3594 40.8404 65.6299 39.9406 65.6299C39.5804 65.6299 39.3106 65.6299 39.0408 65.5399C38.141 66.9825 36.5222 67.9743 34.6328 67.9743C32.6536 67.9743 30.945 66.8021 30.0452 65.1796H29.5953C26.6268 65.1796 24.2881 62.8358 24.2881 59.8606C24.2881 58.0577 25.1879 56.5251 26.537 55.5334C26.1774 54.812 25.9973 54.0907 25.9973 53.2795C25.9973 50.3044 28.336 47.9605 31.3046 47.9605C32.6542 47.9605 33.8232 48.4114 34.723 49.2226C35.7125 48.4114 36.8822 47.9605 38.1415 47.9605C41.11 47.9605 43.4487 50.3044 43.4487 53.2795C43.4487 54.1814 43.2686 55.0825 42.8187 55.8038C44.2581 56.7055 45.2477 58.328 45.2477 60.2216Z" fill="#6CB88E"/>
</svg>
