<svg width="114" height="85" viewBox="0 0 114 85" fill="none" xmlns="http://www.w3.org/2000/svg">
<path d="M110.56 78.686C105.567 75.675 99.5282 73.1271 92.7927 71.042V52.3966H98.3666C104.405 52.3966 109.283 47.5324 109.283 41.5098C109.283 37.9197 107.541 34.7925 104.87 32.8236C105.566 31.5496 105.915 30.2757 105.915 28.7697C105.915 24.2529 102.431 20.5464 98.0184 20.0836C97.6701 15.5668 93.8379 12.0921 89.309 12.0921C85.7093 12.0921 82.6894 14.1764 81.2961 17.3036C81.2961 17.7665 81.412 18.2302 81.412 18.6931C81.412 19.6198 81.2961 20.5464 81.1795 21.4729C83.7343 24.6001 85.1276 28.5376 85.1276 32.707C85.1276 40.582 80.0178 47.1838 72.9342 49.6164C74.7924 51.3533 77.3471 52.3962 80.1337 52.3962H85.7076L85.7092 69.1891C77.9288 67.4514 69.452 66.4094 60.5099 66.1775V44.6359H67.0128C73.6323 44.6359 78.9737 39.308 78.9737 32.707C78.9737 28.7695 77.1155 25.2948 74.0964 23.0943C74.7931 21.7048 75.258 20.1989 75.258 18.5775C75.258 13.5979 71.4259 9.42855 66.5486 8.96487C66.0844 3.98524 62.0197 0.0469055 56.9102 0.0469055C51.8007 0.0469055 47.6199 3.98441 47.2718 8.96487C42.3945 9.42778 38.5623 13.5971 38.5623 18.5775C38.5623 20.1989 38.9107 21.7047 39.7239 23.0943C36.8208 25.295 34.8467 28.7695 34.8467 32.707C34.8467 39.3088 40.1889 44.6359 46.8076 44.6359H53.5423V66.0617C44.6004 66.2936 36.1234 67.3357 28.4591 69.0727V52.3959H34.033C36.8202 52.3959 39.3751 51.3538 41.2325 49.6162C34.1489 47.1836 29.0391 40.5826 29.0391 32.7068C29.0391 28.6528 30.549 24.5999 32.9872 21.4727C32.7547 20.5461 32.7547 19.6195 32.7547 18.6929C32.7547 18.23 32.7547 17.7663 32.8706 17.3034C31.4773 14.2924 28.4576 12.0919 24.8577 12.0919C20.2131 12.0919 16.4967 15.682 16.1483 20.0834C11.7376 20.5471 8.25382 24.2527 8.25382 28.7695C8.25382 30.2753 8.60214 31.5493 9.29876 32.8234C6.62809 34.7922 4.88579 37.9195 4.88579 41.5096C4.88579 47.5322 9.76306 52.3964 15.8018 52.3964H21.3756V71.0426C14.6403 73.1269 8.60139 75.6748 3.60841 78.6866C0.472811 80.5399 2.21515 85.5195 5.815 84.9402C21.2597 82.856 38.6785 81.6974 57.1425 81.6974C75.6062 81.6974 93.0253 82.8559 108.47 84.9402C111.954 85.4031 113.696 80.539 110.561 78.6858L110.56 78.686Z" fill="#524141"/>
<path d="M98.366 52.3966H92.7922L85.707 52.3962H80.1332C77.3466 52.3962 74.7918 51.3533 72.9336 49.6164C80.0173 47.1839 85.127 40.582 85.127 32.707C85.127 28.5377 83.7337 24.6001 81.179 21.4729C81.2956 20.5464 81.4114 19.6198 81.4114 18.6932C81.4114 18.2303 81.2956 17.7665 81.2956 17.3036C82.6889 14.1764 85.7088 12.0922 89.3085 12.0922C93.8374 12.0922 97.6696 15.5668 98.0179 20.0836C102.43 20.5465 105.914 24.253 105.914 28.7697C105.914 30.2758 105.566 31.5497 104.869 32.8237C107.54 34.7925 109.282 37.9198 109.282 41.5098C109.282 47.5324 104.405 52.3966 98.366 52.3966Z" fill="#6CB88E"/>
<path d="M67.0122 44.6359H60.5094H53.5417H46.8071C40.1883 44.6359 34.8461 39.3089 34.8461 32.707C34.8461 28.7695 36.8203 25.295 39.7234 23.0943C38.9101 21.7048 38.5618 20.1989 38.5618 18.5776C38.5618 13.5971 42.394 9.42781 47.2712 8.9649C47.6194 3.98444 51.8001 0.046936 56.9096 0.046936C62.0192 0.046936 66.0839 3.98527 66.5481 8.9649C71.4253 9.42858 75.2575 13.5979 75.2575 18.5776C75.2575 20.199 74.7925 21.7048 74.0959 23.0943C77.115 25.2948 78.9732 28.7695 78.9732 32.707C78.9732 39.308 73.6318 44.6359 67.0122 44.6359Z" fill="#6CB88E"/>
<path d="M34.0324 52.396H28.4586L21.3751 52.3964H15.8013C9.76253 52.3964 4.88525 47.5322 4.88525 41.5096C4.88525 37.9195 6.62755 34.7922 9.29823 32.8235C8.6016 31.5493 8.25329 30.2754 8.25329 28.7695C8.25329 24.2527 11.7371 20.5471 16.1477 20.0834C16.4961 15.682 20.2126 12.092 24.8572 12.092C28.4571 12.092 31.4768 14.2924 32.87 17.3034C32.7542 17.7663 32.7542 18.23 32.7542 18.693C32.7542 19.6195 32.7542 20.5461 32.9867 21.4727C30.5485 24.5999 29.0386 28.6529 29.0386 32.7068C29.0386 40.5826 34.1483 47.1837 41.232 49.6162C39.3746 51.3538 36.8196 52.396 34.0324 52.396Z" fill="#6CB88E"/>
</svg>
