<svg width="114" height="92" viewBox="0 0 114 92" fill="none" xmlns="http://www.w3.org/2000/svg">
<path d="M42.8713 35.6357C45.7658 37.7158 48.2074 37.6255 50.1972 36.1782C50.6496 35.907 50.7398 35.2735 50.3783 34.912C49.4736 33.6458 47.9361 31.9273 45.4945 29.6662C45.3135 29.4851 45.4945 29.3047 45.6756 29.3047C48.4792 30.2996 50.5593 31.2945 52.0066 32.0182C52.5492 32.3797 53.1826 32.1084 53.3631 31.4756C53.8154 29.3955 53.0918 27.2247 50.4685 25.3256C47.6648 23.3358 41.2428 22.6121 37.8064 22.431C36.7212 22.3408 35.9976 23.426 36.3591 24.4209C37.5345 27.5861 40.0669 33.6458 42.8712 35.6358L42.8713 35.6357Z" fill="#30522A"/>
<path d="M75.1604 38.1681C71.8141 38.8016 65.4824 40.2482 62.9499 42.6001C60.3273 45.0423 60.0553 47.4839 61.0502 49.6549C61.2313 50.1073 61.8641 50.2883 62.3164 50.1073C63.6728 49.3836 65.6628 48.2985 68.3763 46.2184C68.5574 46.1282 68.7378 46.3086 68.6476 46.4897C67.1101 49.0222 65.8439 50.9217 64.7587 52.188C64.3064 52.7305 64.4874 53.3639 65.1202 53.6352C67.11 54.4491 69.3712 54.0876 71.7226 51.9166C74.2551 49.5652 76.0639 43.3244 76.8784 39.9774C77.0601 38.8916 76.1553 37.987 75.1604 38.168L75.1604 38.1681Z" fill="#30522A"/>
<path d="M58.8802 14.2003C60.2367 13.4766 62.2266 12.3915 64.9401 10.3115C65.1212 10.2212 65.3016 10.4017 65.2114 10.5827C63.6739 13.1152 62.4077 15.0147 61.3225 16.281C60.8702 16.8236 61.0512 17.457 61.684 17.7283C63.6739 18.5421 65.935 18.1806 68.2864 16.0096C70.8189 13.6582 72.6277 7.41744 73.4422 4.07047C73.7134 3.07553 72.8087 2.08066 71.8145 2.26171C68.4681 2.89514 62.1364 4.3418 59.604 6.69372C56.9813 9.13591 56.7094 11.5775 57.7043 13.7485C57.7951 14.2002 58.4285 14.3807 58.8803 14.2002L58.8802 14.2003Z" fill="#30522A"/>
<path d="M48.6597 12.4817C51.1922 15.6476 53.3631 19.3554 54.7196 23.154C56.076 26.9527 56.4382 30.9323 55.2622 34.3694C54.9909 35.1833 54.6287 35.9971 54.177 36.8116C53.6344 37.8968 53.0919 38.9825 52.6395 40.0677C51.7348 42.3288 51.0118 44.59 50.5594 47.0322C50.107 49.4744 49.926 51.9159 50.1071 54.449C50.1973 55.7152 50.3783 56.9815 50.5594 58.2478C50.5594 58.338 50.5594 58.4288 50.6496 58.4288H59.1517L59.0615 58.1575C58.9713 57.9765 58.8804 57.796 58.8804 57.615C58.6993 57.2534 58.6091 56.8011 58.4281 56.3487C58.1568 55.444 57.9757 54.54 57.8855 53.6352C57.6142 51.8265 57.6142 49.9268 57.7953 47.937C57.9763 46.0373 58.3378 44.1382 58.9712 42.2387C59.2425 41.334 59.6047 40.339 59.9662 39.4351C60.4185 38.2591 60.8709 36.9929 61.1422 35.7266C61.6847 33.1941 61.6847 30.5709 61.2324 28.1293C60.78 25.6871 60.0564 23.426 59.0615 21.2556C58.0666 19.0848 56.8907 17.0948 55.5341 15.1958C54.1777 13.2961 52.8206 11.5782 51.1021 9.85962C50.4687 9.22619 49.4744 9.13597 48.7507 9.7694C48.1173 10.582 48.0264 11.6671 48.6599 12.4816L48.6597 12.4817Z" fill="#1B2F17"/>
<path d="M72.628 61.8649H39.5249C38.8012 61.8649 38.1685 62.4984 38.1685 63.2214V68.3771C38.1685 69.1007 38.8019 69.7335 39.5249 69.7335H42.3285L45.4945 86.3755C45.6755 87.4607 46.5796 88.1843 47.6653 88.1843H64.5787C65.6638 88.1843 66.5685 87.3704 66.7495 86.3755L69.9155 69.7335H72.7191C73.4428 69.7335 74.0756 69.1001 74.0756 68.3771V63.2214C73.9847 62.4075 73.4421 61.8649 72.6283 61.8649H72.628Z" fill="#6A4D4C"/>
</svg>
