<svg width="113" height="92" viewBox="0 0 113 92" fill="none" xmlns="http://www.w3.org/2000/svg">
<path d="M80.9997 23.7752C81.0897 23.2329 81.0897 22.7807 81.0897 22.2385C81.0897 15.2775 75.4069 9.58277 68.462 9.58277H67.8303C65.8465 5.24309 61.4264 2.25989 56.3754 2.25989C51.3243 2.25989 46.9042 5.24309 44.9198 9.58213H44.2881C37.3425 9.58213 31.6604 15.2775 31.6604 22.2378C31.6604 22.7801 31.6604 23.2322 31.7504 23.7745C28.5931 26.0345 26.5188 29.8313 26.5188 34.0801C26.5188 39.9558 30.4878 44.8379 35.8094 46.2844C37.5234 51.2566 42.2139 54.7822 47.7161 54.7822C48.9789 54.7822 50.1517 54.6012 51.3238 54.2399C52.1355 53.9688 52.8571 54.6012 52.8571 55.4153V79.1905C38.3349 79.6426 37.7038 82.2639 37.7038 85.5183C37.7038 89.0439 74.8662 89.0439 74.8662 85.5183C74.8662 82.2639 74.2345 79.5518 59.713 79.1905V55.4153C59.713 54.6018 60.5246 54.0596 61.2463 54.2399C62.4191 54.6012 63.5913 54.7822 64.854 54.7822C70.3562 54.7822 75.0467 51.2566 76.7607 46.2844C82.0823 44.8379 86.0513 39.9566 86.0513 34.0801C86.2319 29.832 84.1569 26.0352 80.9997 23.7752Z" fill="#493D3D"/>
<path d="M80.9997 23.7752C81.0897 23.2329 81.0897 22.7807 81.0897 22.2385C81.0897 15.2775 75.4069 9.58277 68.462 9.58277H67.8303C65.8465 5.24309 61.4264 2.25989 56.3754 2.25989C51.3243 2.25989 46.9042 5.24309 44.9198 9.58213H44.2881C37.3425 9.58213 31.6604 15.2775 31.6604 22.2378C31.6604 22.7801 31.6604 23.2322 31.7504 23.7745C28.5931 26.0345 26.5188 29.8313 26.5188 34.0801C26.5188 39.9558 30.4878 44.8379 35.8094 46.2844C37.5234 51.2566 42.2139 54.7822 47.7161 54.7822C48.9789 54.7822 50.1517 54.6012 51.3238 54.2399C52.1355 53.9688 52.8571 54.6012 52.8571 55.4153V79.1905C38.3349 79.6426 37.7038 82.2639 37.7038 85.5183C37.7038 89.0439 74.8662 89.0439 74.8662 85.5183C74.8662 82.2639 74.2345 79.5518 59.713 79.1905V55.4153C59.713 54.6018 60.5246 54.0596 61.2463 54.2399C62.4191 54.6012 63.5913 54.7822 64.854 54.7822C70.3562 54.7822 75.0467 51.2566 76.7607 46.2844C82.0823 44.8379 86.0513 39.9566 86.0513 34.0801C86.2319 29.832 84.1569 26.0352 80.9997 23.7752Z" fill="#493D3D"/>
<path d="M81.0894 22.2385C81.0894 22.7807 81.0894 23.2329 80.9995 23.7752C84.1566 26.0352 86.2316 29.832 86.051 34.0801C86.051 39.9566 82.0821 44.8379 76.7604 46.2844C75.0465 51.2566 70.3559 54.7822 64.8537 54.7822C63.5911 54.7822 62.4188 54.6012 61.246 54.2399C60.5244 54.0596 59.7127 54.6018 59.7127 55.4153C58.9751 55.6102 57.275 56 56.3751 56C55.4752 56 53.6547 55.6102 52.8569 55.4153C52.8569 54.6012 52.1352 53.9688 51.3236 54.2399C50.1514 54.6012 48.9786 54.7822 47.7159 54.7822C42.2137 54.7822 37.5231 51.2566 35.8092 46.2844C30.4875 44.8379 26.5186 39.9558 26.5186 34.0801C26.5186 29.8313 28.5928 26.0345 31.7502 23.7745C31.6602 23.2322 31.6602 22.7801 31.6602 22.2378C31.6602 15.2775 37.3423 9.58213 44.2879 9.58213H44.9196C46.904 5.24309 51.3241 2.25989 56.3751 2.25989C61.4262 2.25989 65.8463 5.24309 67.83 9.58277H68.4618C75.4067 9.58277 81.0894 15.2775 81.0894 22.2385Z" fill="#30522A"/>
</svg>
