<svg width="113" height="92" viewBox="0 0 113 92" fill="none" xmlns="http://www.w3.org/2000/svg">
<path d="M95.2036 5.58943C87.7207 7.21255 73.4762 10.9991 68.0669 16.5883C61.6656 23.0795 61.9367 29.3904 65.4528 34.5292C62.1172 38.0452 58.6011 42.553 55.716 48.1424C53.4621 44.3559 50.7573 41.2003 47.9627 38.4955C51.839 32.9961 52.0195 26.3243 44.8976 19.9236C39.1277 14.6946 24.793 11.81 17.22 10.5478C14.8761 10.1875 12.8927 12.3507 13.5235 14.6046C15.5069 21.9976 19.9248 36.0615 25.6947 41.2003C32.3664 47.2407 38.5866 46.7898 43.6356 43.0939C49.4953 48.8638 54.7245 57.1579 56.1671 68.6979C44.2663 69.5092 35.161 74.2874 35.161 80.0573C35.161 86.368 84.3856 86.368 84.3856 80.0573C84.3856 74.1976 74.9192 69.3287 62.6583 68.6979C62.1175 63.8299 61.0358 59.502 59.5025 55.6256C62.2972 48.774 66.2642 43.2746 70.0507 39.3076C75.3697 43.2746 81.9515 43.6349 88.6226 36.9637C94.0322 31.4642 97.6381 17.2198 99.1707 9.64673C99.6217 7.12175 97.5483 5.0485 95.2038 5.58927L95.2036 5.58943Z" fill="#6CB88E"/>
<path d="M35 79.9823C35 73.7915 44.7301 68.6993 57.2543 68H62.7457C75.2699 68.5989 85 73.7915 85 79.9823C85 86.6726 35 86.6726 35 79.9823Z" fill="#524141"/>
</svg>
