<svg width="113" height="92" viewBox="0 0 113 92" fill="none" xmlns="http://www.w3.org/2000/svg">
<path d="M91.0327 2.44097C84.5239 2.62195 72.2295 3.34523 66.7151 7.05121C61.2908 10.7578 59.8449 15.0968 60.9295 19.3456C63.5508 17.9899 69.6083 15.0968 75.6649 14.6446C70.4217 17.3568 60.9295 23.3234 52.5225 34.4422C47.9123 24.86 40.1379 19.0744 35.1657 16.1814C41.4935 17.2661 47.4601 21.1536 49.9913 22.8712C51.528 18.8034 50.7146 14.2834 45.7425 9.94433C40.8612 5.60529 28.6569 3.34529 22.2385 2.35089C20.2497 2.07974 18.6228 3.88761 19.1651 5.78626C20.9729 12.024 24.8604 23.7759 29.7419 28.1151C34.895 32.6351 39.5953 32.7253 43.5731 30.3751C46.8275 34.4429 49.5396 39.7763 50.534 46.4663H55.9584C55.6872 44.3872 55.3252 42.3984 54.783 40.4997C58.4895 35.1663 62.4673 30.9175 66.2639 27.6629C69.8796 30.556 74.6708 31.0075 80.2761 27.2108C85.7004 23.5042 91.0338 12.3852 93.5649 6.41876C94.3777 4.42996 93.0213 2.441 91.033 2.441L91.0327 2.44097Z" fill="#30522A"/>
<path d="M75.3033 50.7144H33.6289C32.7246 50.7144 31.9111 51.4377 31.9111 52.4322V58.941C31.9111 59.8452 32.6344 60.6587 33.6289 60.6587H37.0643L41.223 86.6939C41.3132 87.5074 42.0364 88.1405 42.9407 88.1405H65.9927C66.8062 88.1405 67.5295 87.5074 67.7105 86.6939L71.8692 60.6587H75.3046C76.2089 60.6587 77.0224 59.9355 77.0224 58.941L77.0211 52.4322C77.0211 51.4377 76.207 50.7144 75.3033 50.7144H75.3033Z" fill="#6A4D4C"/>
</svg>
