<svg width="113" height="92" viewBox="0 0 113 92" fill="none" xmlns="http://www.w3.org/2000/svg">
<path d="M61.3815 71.2352C60.116 62.0143 53.6071 47.5504 48.2737 36.9736C48.0927 36.6123 48.5448 36.2503 48.9068 36.5215C52.3422 39.8661 57.4046 45.4713 62.557 53.9687C62.9184 54.511 63.6416 54.7821 64.2748 54.4208C76.6594 46.9176 70.6935 29.2896 59.1217 22.0576C53.7882 18.6223 54.6017 11.3907 55.9574 6.59889C56.6806 4.06769 54.2396 1.71761 51.7086 2.53105C30.103 8.94978 19.1646 57.9463 50.1725 57.7655C51.3479 62.3757 52.1613 66.9864 52.4325 71.1445C40.0478 72.0488 30.5557 77.0202 30.5557 83.0776C30.5557 89.7674 82.5357 89.7674 82.5357 83.0776C82.4449 77.2013 73.4049 72.2298 61.3821 71.2354L61.3815 71.2352Z" fill="#30522A"/>
<path d="M30.5557 83.0776C30.5557 77.0202 40.0478 72.0488 52.4325 71.1445C53.2883 71.0963 55.4 71 57 71C58.6 71 60.5877 71.1568 61.3815 71.2352C73.4044 72.2296 82.4449 77.2013 82.5357 83.0776C82.5357 89.7674 30.5557 89.7674 30.5557 83.0776Z" fill="#493D3D"/>
</svg>
